# xmcd CD database file
#
# Track frame offsets:
#	150
#	14830
#	26795
#	45990
#	69717
#	83857
#	111142
#	130002
#	163137
#	202410
#	239445
#	267050
#	280575
#	293135
#	317530
#
# Disc length: 4607 seconds
#
# Revision: 7
# Processed by: cddbd v1.5.2PL0 Copyright (c) Steve Scherf et al.
# Submitted via: CDex 1.51
#
DISCID=db11fd0f
DTITLE=Wes Montgomery - Impressions - The Verve Jazz Sides  [CD 1-2]
DYEAR=1965
DGENRE=Jazz
TTITLE0=West Coast Blues
TTITLE1=Caravan
TTITLE2=Twisted Blues
TTITLE3=Golden Earrings
TTITLE4=Naptown Blues
TTITLE5=Sun Down
TTITLE6=Milestones
TTITLE7='Round Midnight
TTITLE8=Mellow Mood
TTITLE9=James and Wes
TTITLE10=O. G. D. (aka ''Road Song'')
TTITLE11=Wives and Lovers
TTITLE12=Portrait of Jennie
TTITLE13=The Surrey with the Fringe on Top
TTITLE14=The Surrey with the Fringe on Top (reconstructed version)
EXTD=YEAR: 1965
EXTT0=
EXTT1=
EXTT2=
EXTT3=
EXTT4=
EXTT5=
EXTT6=
EXTT7=
EXTT8=
EXTT9=
EXTT10=
EXTT11=
EXTT12=
EXTT13=
EXTT14=
PLAYORDER=
